<svg version="1.2" xmlns="http://www.w3.org/2000/svg" viewBox="0 0 1025 99" width="1025" height="99">
	<title>layered-waves-haikei-svg</title>
	<style>
		.s0 { fill: #f8ecdc } 
		.s1 { fill: #c8e7c6 } 
		.s2 { fill: #aee1b1 } 
		.s3 { fill: #91db9d } 
		.s4 { fill: #6fd58b } 
		.s5 { fill: #3fce7b } 
	</style>
	<path id="Layer" class="s0" d="m0 0h1025v1200h-1025z"/>
	<path id="Layer" class="s1" d="m0 37l21.3 9.7c21.4 9.6 64 29 106.7 30.3 42.7 1.3 85.3-15.3 128-13.8 42.7 1.5 85.3 21.1 128.2 22.6 42.8 1.5 85.8-15.1 128.6-17.1 42.9-2 85.5 10.6 128.2 7.6 42.7-3 85.3-21.6 128-28.6 42.7-7 85.3-2.4 128 1 42.7 3.3 85.3 5.3 106.7 6.3l21.3 1v-56h-21.3c-21.4 0-64 0-106.7 0-42.7 0-85.3 0-128 0-42.7 0-85.3 0-128 0-42.7 0-85.3 0-128.2 0-42.8 0-85.8 0-128.6 0-42.9 0-85.5 0-128.2 0-42.7 0-85.3 0-128 0-42.7 0-85.3 0-106.7 0h-21.3z"/>
	<path id="Layer" class="s2" d="m0 74l21.3-4.5c21.4-4.5 64-13.5 106.7-18.7 42.7-5.1 85.3-6.5 128-6.8 42.7-0.3 85.3 0.3 128.2-2 42.8-2.3 85.8-7.7 128.6-8.7 42.9-1 85.5 2.4 128.2 6.4 42.7 4 85.3 8.6 128 16 42.7 7.3 85.3 17.3 128 19.6 42.7 2.4 85.3-3 106.7-5.6l21.3-2.7v-67h-21.3c-21.4 0-64 0-106.7 0-42.7 0-85.3 0-128 0-42.7 0-85.3 0-128 0-42.7 0-85.3 0-128.2 0-42.8 0-85.8 0-128.6 0-42.9 0-85.5 0-128.2 0-42.7 0-85.3 0-128 0-42.7 0-85.3 0-106.7 0h-21.3z"/>
	<path id="Layer" class="s3" d="m0 32l21.3-2c21.4-2 64-6 106.7-1.7 42.7 4.4 85.3 17 128 17.7 42.7 0.7 85.3-10.7 128.2-9.2 42.8 1.5 85.8 15.9 128.6 21.4 42.9 5.5 85.5 2.1 128.2-5.9 42.7-8 85.3-20.6 128-20 42.7 0.7 85.3 14.7 128 23.4 42.7 8.6 85.3 12 106.7 13.6l21.3 1.7v-71h-21.3c-21.4 0-64 0-106.7 0-42.7 0-85.3 0-128 0-42.7 0-85.3 0-128 0-42.7 0-85.3 0-128.2 0-42.8 0-85.8 0-128.6 0-42.9 0-85.5 0-128.2 0-42.7 0-85.3 0-128 0-42.7 0-85.3 0-106.7 0h-21.3z"/>
	<path id="Layer" class="s4" d="m0 17l21.3 1.2c21.4 1.1 64 3.5 106.7 7.6 42.7 4.2 85.3 10.2 128 13.2 42.7 3 85.3 3 128.2 0.3 42.8-2.6 85.8-8 128.6-11.5 42.9-3.5 85.5-5.1 128.2-5.8 42.7-0.7 85.3-0.3 128-0.8 42.7-0.5 85.3-1.9 128-2 42.7-0.2 85.3 0.8 106.7 1.3l21.3 0.5v-21h-21.3c-21.4 0-64 0-106.7 0-42.7 0-85.3 0-128 0-42.7 0-85.3 0-128 0-42.7 0-85.3 0-128.2 0-42.8 0-85.8 0-128.6 0-42.9 0-85.5 0-128.2 0-42.7 0-85.3 0-128 0-42.7 0-85.3 0-106.7 0h-21.3z"/>
	<path id="Layer" class="s5" d="m0 19l21.3 0.2c21.4 0.1 64 0.5 106.7 3.1 42.7 2.7 85.3 7.7 128 4.9 42.7-2.9 85.3-13.5 128.2-17.9 42.8-4.3 85.8-2.3 128.6 0 42.9 2.4 85.5 5 128.2 7.9 42.7 2.8 85.3 5.8 128 4.5 42.7-1.4 85.3-7 128-9.4 42.7-2.3 85.3-1.3 106.7-0.8l21.3 0.5v-12h-21.3c-21.4 0-64 0-106.7 0-42.7 0-85.3 0-128 0-42.7 0-85.3 0-128 0-42.7 0-85.3 0-128.2 0-42.8 0-85.8 0-128.6 0-42.9 0-85.5 0-128.2 0-42.7 0-85.3 0-128 0-42.7 0-85.3 0-106.7 0h-21.3z"/>
</svg>