<svg id="visual" viewBox="0 0 1025 1200" width="1025" height="1200" xmlns="http://www.w3.org/2000/svg" xmlns:xlink="http://www.w3.org/1999/xlink" version="1.1"><rect x="0" y="0" width="1025" height="1200" fill="#F8ECDC"></rect><path d="M0 37L21.3 46.7C42.7 56.3 85.3 75.7 128 77C170.7 78.3 213.3 61.7 256 63.2C298.7 64.7 341.3 84.3 384.2 85.8C427 87.3 470 70.7 512.8 68.7C555.7 66.7 598.3 79.3 641 76.3C683.7 73.3 726.3 54.7 769 47.7C811.7 40.7 854.3 45.3 897 48.7C939.7 52 982.3 54 1003.7 55L1025 56L1025 0L1003.7 0C982.3 0 939.7 0 897 0C854.3 0 811.7 0 769 0C726.3 0 683.7 0 641 0C598.3 0 555.7 0 512.8 0C470 0 427 0 384.2 0C341.3 0 298.7 0 256 0C213.3 0 170.7 0 128 0C85.3 0 42.7 0 21.3 0L0 0Z" fill="#c8e7c6"></path><path d="M0 74L21.3 69.5C42.7 65 85.3 56 128 50.8C170.7 45.7 213.3 44.3 256 44C298.7 43.7 341.3 44.3 384.2 42C427 39.7 470 34.3 512.8 33.3C555.7 32.3 598.3 35.7 641 39.7C683.7 43.7 726.3 48.3 769 55.7C811.7 63 854.3 73 897 75.3C939.7 77.7 982.3 72.3 1003.7 69.7L1025 67L1025 0L1003.7 0C982.3 0 939.7 0 897 0C854.3 0 811.7 0 769 0C726.3 0 683.7 0 641 0C598.3 0 555.7 0 512.8 0C470 0 427 0 384.2 0C341.3 0 298.7 0 256 0C213.3 0 170.7 0 128 0C85.3 0 42.7 0 21.3 0L0 0Z" fill="#aee1b1"></path><path d="M0 32L21.3 30C42.7 28 85.3 24 128 28.3C170.7 32.7 213.3 45.3 256 46C298.7 46.7 341.3 35.3 384.2 36.8C427 38.3 470 52.7 512.8 58.2C555.7 63.7 598.3 60.3 641 52.3C683.7 44.3 726.3 31.7 769 32.3C811.7 33 854.3 47 897 55.7C939.7 64.3 982.3 67.7 1003.7 69.3L1025 71L1025 0L1003.7 0C982.3 0 939.7 0 897 0C854.3 0 811.7 0 769 0C726.3 0 683.7 0 641 0C598.3 0 555.7 0 512.8 0C470 0 427 0 384.2 0C341.3 0 298.7 0 256 0C213.3 0 170.7 0 128 0C85.3 0 42.7 0 21.3 0L0 0Z" fill="#91db9d"></path><path d="M0 17L21.3 18.2C42.7 19.3 85.3 21.7 128 25.8C170.7 30 213.3 36 256 39C298.7 42 341.3 42 384.2 39.3C427 36.7 470 31.3 512.8 27.8C555.7 24.3 598.3 22.7 641 22C683.7 21.3 726.3 21.7 769 21.2C811.7 20.7 854.3 19.3 897 19.2C939.7 19 982.3 20 1003.7 20.5L1025 21L1025 0L1003.7 0C982.3 0 939.7 0 897 0C854.3 0 811.7 0 769 0C726.3 0 683.7 0 641 0C598.3 0 555.7 0 512.8 0C470 0 427 0 384.2 0C341.3 0 298.7 0 256 0C213.3 0 170.7 0 128 0C85.3 0 42.7 0 21.3 0L0 0Z" fill="#6fd58b"></path><path d="M0 19L21.3 19.2C42.7 19.3 85.3 19.7 128 22.3C170.7 25 213.3 30 256 27.2C298.7 24.3 341.3 13.7 384.2 9.3C427 5 470 7 512.8 9.3C555.7 11.7 598.3 14.3 641 17.2C683.7 20 726.3 23 769 21.7C811.7 20.3 854.3 14.7 897 12.3C939.7 10 982.3 11 1003.7 11.5L1025 12L1025 0L1003.7 0C982.3 0 939.7 0 897 0C854.3 0 811.7 0 769 0C726.3 0 683.7 0 641 0C598.3 0 555.7 0 512.8 0C470 0 427 0 384.2 0C341.3 0 298.7 0 256 0C213.3 0 170.7 0 128 0C85.3 0 42.7 0 21.3 0L0 0Z" fill="#3fce7b"></path></svg>